# xmcd
#
# Track frame offsets:
#	150
#	35257
#	57304
#	81417
#	115578
#	140705
#	168818
#	187103
#	205423
#	225393
#	239168
#	255965
#	272065
#	289428
#
# Disc length: 4157 seconds
#
# Revision: 1
# Processed by: cddbd v1.5.2PL0 Copyright (c) Steve Scherf et al.
# Submitted via: audiograbber 1.83.01
#
DISCID=ce103b0e
DTITLE=Various Artist - Zillo CD 09/12
DYEAR=2012
DGENRE=Gothic Rock
TTITLE0=Mono Inc - From The Ashes
TTITLE1=Dead Can Dance - Amnesia (Edit)
TTITLE2=Lacrimosa - Revolution
TTITLE3=Tarja - Crimson Deep
TTITLE4=The Crüxshadows - Indivisible
TTITLE5=Collapse Under The Empire - Dragonfly
TTITLE6=Ceremony - Without Your Love
TTITLE7=Defect 86 - Serious 4
TTITLE8=Symbiotic Systems - Unheard Of Tale
TTITLE9=Human Decay - Silent Submission (Remixed by Die Rostigen Loffel feat. W
TTITLE9=Thums)
TTITLE10=Aesthetische - Punch!
TTITLE11=Nova-Specs - Fucking Shit
TTITLE12=Metroland - The Passenger
TTITLE13=ES23 - I Want You
EXTD=
EXTT0=
EXTT1=
EXTT2=
EXTT3=
EXTT4=
EXTT5=
EXTT6=
EXTT7=
EXTT8=
EXTT9=
EXTT10=
EXTT11=
EXTT12=
EXTT13=
PLAYORDER=
